<svg xmlns:xlink="http://www.w3.org/1999/xlink" xmlns="http://www.w3.org/2000/svg" stroke-width="0.501" stroke-linejoin="bevel" fill-rule="evenodd" version="1.1" overflow="visible" viewBox="0 0 367.5 440.625" x="0px" y="0px"><g fill="none" stroke="black" font-family="Times New Roman" font-size="16" transform="scale(1 -1)"><g transform="translate(0 -352.5)"><g><path d="M 226.229,40.543 C 227.764,40.469 229.266,40.485 230.73,40.568 C 230.568,33.541 230.528,26.513 232.63,19.486 L 246.837,19.486 L 247.25,14.132 L 227.895,13.722 C 226.386,22.471 225.435,31.332 226.229,40.543 Z" stroke-linejoin="miter" stroke="none" fill="#000000" marker-start="none" marker-end="none"/><path d="M 156.737,78.916 C 133.664,90.45 110.609,130.667 108.462,160.728 C 107.798,178.821 110.463,194.134 115.006,207.881 L 115.115,208.211 L 115.837,209.211 L 115.988,209.355 C 118.644,211.883 126.118,212.15 134.563,211.966 C 143.607,211.768 155.342,210.861 167.933,209.717 C 190.05,207.708 214.801,204.97 232.82,203.955 L 237.692,203.739 L 237.461,209.577 C 236.389,252.629 244.538,315.771 287.253,311.072 L 287.663,311.027 L 288.03,310.839 C 297.052,306.229 300.916,293.727 302.109,283.357 L 302.133,283.147 L 302.118,282.937 C 300.012,253.879 297.969,220.723 302.961,183.789 L 302.983,183.625 L 302.981,183.46 C 302.117,112 259.113,67.721 230.494,65.95 C 203.654,65.013 177.806,68.051 156.737,78.916 Z M 218.99,105.685 L 225.984,106.821 L 232.713,110.709 C 238.889,115.019 242.826,120.193 245.148,125.975 C 248.589,135.544 249.51,144.694 248.419,153.935 L 246.744,162.867 L 245.835,163.901 C 245.302,164.258 244.519,164.565 243.301,164.772 C 216.778,168.115 190.511,171.525 164.307,169.302 L 154.906,168.202 L 154.986,170.002 C 150.623,123.83 182.778,101.535 218.99,105.685 Z M 281.572,279.153 L 281.58,279.286 L 281.604,279.417 C 282.827,286.239 278.498,293.486 272.579,293.57 L 272.527,293.57 L 272.476,293.574 C 266.991,293.903 260.562,286.798 260.183,280.437 L 260.174,280.294 L 260.148,280.154 C 258.84,273.206 262.949,269.339 270.207,269.101 C 276.138,268.746 281.221,273.253 281.572,279.153 Z" fill="#000000" fill-rule="evenodd" stroke-width="0.5" stroke="none" marker-start="none" marker-end="none" stroke-miterlimit="79.8403193612775"/><path d="M 253.515,302.116 C 250.325,304.486 249.879,307.81 251.991,310.548 C 253.305,312.251 255.488,313.588 258.026,314.495 L 258.418,314.609 L 258.244,315.396 C 257.706,318.402 258.005,321.25 260.344,322.941 C 262.474,324.48 265.585,324.369 269.177,323.372 L 269.761,323.191 L 269.776,323.543 C 270.174,327.178 271.975,330.054 274.522,331.532 C 278.128,333.623 282.57,332.492 284.81,327.924 C 287.643,321.737 288.634,315.495 289.86,309.75 C 289.275,310.15 288.665,310.514 288.03,310.839 L 287.663,311.027 L 287.253,311.072 C 286.474,311.157 285.708,311.22 284.951,311.261 L 284.675,312.581 C 283.725,317.2 282.765,321.581 280.743,325.997 C 279.636,328.254 278.04,328.37 276.78,327.639 C 275.316,326.79 273.718,324.362 274.321,320.345 L 274.897,316.505 L 271.279,317.915 C 268.709,318.916 266.746,319.427 265.304,319.572 C 263.831,319.72 263.205,319.457 262.981,319.294 C 262.656,319.06 261.99,317.84 263.302,313.751 L 264.053,311.411 L 261.656,310.869 C 258.493,310.154 256.386,308.877 255.554,307.8 C 255.179,307.313 255.183,307.037 255.203,306.921 C 255.226,306.782 255.362,306.35 256.188,305.737 C 257.367,304.87 258.85,304.117 260.639,303.528 L 261.38,303.319 C 260.133,302.23 258.946,301.043 257.816,299.768 C 256.218,300.407 254.777,301.19 253.515,302.116 Z" fill-rule="evenodd" stroke-width="0.5" stroke="none" fill="#000000" marker-start="none" marker-end="none" stroke-miterlimit="79.8403193612775"/><path d="M 302.118,282.513 L 302.133,282.723 L 302.109,282.933 C 301.828,285.37 301.4,287.925 300.792,290.468 C 308.658,292.759 316.054,291.395 322.018,288.419 L 324.54,287.159 L 322.753,284.979 C 317.38,278.425 309.93,276.687 301.641,275.816 C 301.798,278.073 301.957,280.304 302.118,282.513 Z" fill-rule="evenodd" stroke-width="0.5" stroke="none" fill="#000000" marker-start="none" marker-end="none" stroke-miterlimit="79.8403193612775"/><path d="M 304.609,247.599 C 304.118,247.755 303.627,248.007 303.19,248.38 L 303.078,248.491 L 302.786,248.707 C 302.522,248.944 302.352,249.178 302.272,249.291 C 301.544,250.31 300.902,252.193 300.38,253.849 C 300.37,253.88 300.36,253.911 300.35,253.942 C 300.679,261.612 301.143,269.046 301.641,276.24 C 303.483,276.433 305.283,276.669 307.029,276.992 L 317.883,259.21 L 317.938,259.093 C 319.228,256.302 318.279,253.608 316.526,251.99 C 315.491,251.035 314.072,250.357 312.564,250.24 L 311.931,250.24 L 312.103,250.463 C 310.477,248.111 307.057,246.813 304.609,247.599 Z M 306.059,251.871 L 306.054,251.876 L 305.984,251.884 C 305.999,251.878 306.025,251.874 306.059,251.871 Z M 307.448,252.236 C 308.198,252.632 308.487,253.101 308.528,253.273 L 309.143,255.904 L 311.619,254.822 C 312.065,254.628 312.843,254.714 313.474,255.297 C 313.932,255.72 314.161,256.251 313.964,256.912 L 313.881,257.128 L 303.731,273.759 L 303.385,268.54 L 302.955,261.191 L 303.325,259.837 C 303.789,258.154 304.244,256.558 304.672,255.202 C 305.169,253.625 305.508,252.773 305.71,252.33 L 305.769,252.208 L 306.054,251.876 L 306.056,251.876 L 306.059,251.871 C 306.266,251.852 306.794,251.891 307.448,252.236 Z" fill-rule="evenodd" stroke-width="0.5" stroke="none" fill="#000000" marker-start="none" marker-end="none" stroke-miterlimit="79.8403193612775"/><path d="M 50.094,181.216 C 43.695,185.93 42.329,194.95 47.043,201.348 C 51.758,207.747 60.778,209.113 67.176,204.399 C 68.748,203.24 70.017,201.821 70.966,200.245 C 87.001,206.44 99.195,206.545 114.417,206.058 C 113.955,204.589 113.514,203.103 113.096,201.597 C 98.594,202.031 87.384,201.755 72.656,196.074 C 73.576,192.115 72.824,187.793 70.226,184.267 C 65.512,177.868 56.492,176.502 50.094,181.216 Z M 66.603,186.936 C 69.844,191.334 68.904,197.536 64.507,200.776 C 60.109,204.016 53.907,203.076 50.666,198.679 C 47.426,194.281 48.366,188.079 52.763,184.839 C 57.161,181.599 63.363,182.539 66.603,186.936 Z M 53.96,190.682 C 52.904,193.448 54.29,196.553 57.057,197.609 C 59.823,198.665 62.928,197.279 63.984,194.512 C 65.04,191.746 63.654,188.641 60.887,187.585 C 58.121,186.529 55.016,187.915 53.96,190.682 Z M 76.933,228.663 C 76.738,226.058 75.831,223.474 74.169,221.218 C 69.455,214.819 60.435,213.453 54.037,218.167 C 47.638,222.881 46.272,231.902 50.986,238.299 C 55.701,244.698 64.721,246.064 71.119,241.35 C 73.947,239.265 75.792,236.339 76.563,233.17 C 96.908,232.823 108.64,223.847 118.62,210.79 C 117.508,210.421 116.614,209.951 115.988,209.355 L 115.837,209.211 L 115.115,208.211 L 115.058,208.04 C 105.761,220.213 95.288,228.224 76.933,228.663 Z M 107.807,244.335 C 102.876,240.826 96.051,240.693 90.916,244.477 C 84.517,249.191 83.151,258.211 87.865,264.609 C 92.58,271.008 101.6,272.374 107.998,267.66 C 114.396,262.946 115.762,253.925 111.048,247.528 C 111.044,247.523 111.04,247.518 111.037,247.513 C 119.864,236.248 124.323,226.596 125.322,211.866 C 123.682,211.762 122.175,211.597 120.847,211.348 C 119.959,224.98 115.998,233.793 107.807,244.335 Z M 70.546,223.887 C 73.786,228.285 72.846,234.487 68.45,237.727 C 64.052,240.967 57.85,240.027 54.609,235.63 C 51.369,231.233 52.309,225.03 56.706,221.79 C 61.104,218.55 67.306,219.49 70.546,223.887 Z M 57.335,227.807 C 56.279,230.573 57.665,233.678 60.432,234.734 C 63.198,235.79 66.303,234.404 67.359,231.637 C 68.415,228.871 67.029,225.766 64.262,224.71 C 61.496,223.654 58.391,225.04 57.335,227.807 Z M 107.425,250.197 C 110.665,254.594 109.725,260.797 105.329,264.037 C 100.931,267.277 94.729,266.337 91.488,261.94 C 88.248,257.542 89.188,251.34 93.585,248.1 C 97.983,244.86 104.185,245.8 107.425,250.197 Z M 94.519,254.702 C 93.463,257.468 94.849,260.573 97.616,261.629 C 100.382,262.685 103.487,261.299 104.543,258.532 C 105.599,255.766 104.213,252.661 101.446,251.605 C 98.68,250.549 95.575,251.935 94.519,254.702 Z" stroke-linejoin="miter" stroke-width="4.5" stroke="none" fill="#000000" marker-start="none" marker-end="none" stroke-miterlimit="79.8403193612775"/><path d="M 266.822,283.837 C 268.953,285.797 272.528,285.896 274.8,284.06 C 277.072,282.224 277.188,279.132 275.057,277.173 C 272.926,275.214 269.351,275.114 267.079,276.95 C 264.807,278.786 264.691,281.878 266.822,283.837 Z" fill="#000000" stroke-linejoin="miter" stroke="none" marker-start="none" marker-end="none"/><path d="M 181.135,156.309 L 164.647,157.514 C 163.409,157.605 162.477,158.684 162.567,159.923 C 162.658,161.161 163.737,162.093 164.976,162.003 L 181.464,160.798 C 182.702,160.707 183.634,159.628 183.544,158.389 C 183.453,157.151 182.374,156.219 181.135,156.309 Z" stroke-width="0.5" stroke="none" fill="#000000" fill-rule="evenodd" marker-start="none" marker-end="none" stroke-miterlimit="79.8403193612775"/><path d="M 209.678,155.102 L 193.995,156.31 C 192.756,156.406 191.829,157.488 191.924,158.726 C 192.02,159.965 193.102,160.892 194.34,160.797 L 210.023,159.589 C 211.262,159.493 212.189,158.411 212.094,157.173 C 211.998,155.934 210.916,155.007 209.678,155.102 Z" stroke-width="0.5" stroke="none" fill="#000000" fill-rule="evenodd" marker-start="none" marker-end="none" stroke-miterlimit="79.8403193612775"/><path d="M 240.523,153.104 L 225.239,155.115 C 224.008,155.277 223.14,156.408 223.302,157.639 C 223.464,158.87 224.595,159.738 225.826,159.576 L 241.11,157.565 C 242.341,157.403 243.209,156.272 243.047,155.041 C 242.885,153.81 241.754,152.942 240.523,153.104 Z" stroke-width="0.5" stroke="none" fill="#000000" fill-rule="evenodd" marker-start="none" marker-end="none" stroke-miterlimit="79.8403193612775"/><path d="M 197.326,146.652 L 181.644,147.055 C 180.402,147.087 179.42,148.121 179.452,149.362 C 179.484,150.604 180.518,151.586 181.759,151.554 L 197.441,151.151 C 198.683,151.119 199.665,150.085 199.633,148.844 C 199.601,147.602 198.567,146.62 197.326,146.652 Z" stroke-width="0.5" stroke="none" fill="#000000" fill-rule="evenodd" marker-start="none" marker-end="none" stroke-miterlimit="79.8403193612775"/><path d="M 184.414,136.283 L 167.123,137.491 C 165.884,137.578 164.948,138.653 165.035,139.892 C 165.122,141.131 166.197,142.067 167.436,141.98 L 184.727,140.772 C 185.966,140.685 186.902,139.61 186.815,138.371 C 186.728,137.132 185.653,136.196 184.414,136.283 Z" stroke-width="0.5" stroke="none" fill="#000000" fill-rule="evenodd" marker-start="none" marker-end="none" stroke-miterlimit="79.8403193612775"/><path d="M 195.941,136.839 C 195.941,138.08 196.949,139.089 198.191,139.089 L 207.037,139.089 C 208.278,139.089 209.287,138.08 209.287,136.839 C 209.287,135.597 208.278,134.589 207.037,134.589 L 198.191,134.589 C 196.949,134.589 195.941,135.597 195.941,136.839 Z" stroke-width="0.5" stroke="none" fill="#000000" fill-rule="evenodd" marker-start="none" marker-end="none" stroke-miterlimit="79.8403193612775"/><path d="M 223.795,132.115 L 216.956,132.922 C 215.722,133.068 214.839,134.187 214.985,135.42 C 215.131,136.654 216.25,137.537 217.483,137.391 L 224.322,136.584 C 225.556,136.438 226.439,135.319 226.293,134.086 C 226.147,132.852 225.028,131.969 223.795,132.115 Z" stroke-width="0.5" stroke="none" fill="#000000" fill-rule="evenodd" marker-start="none" marker-end="none" stroke-miterlimit="79.8403193612775"/><path d="M 242.004,132.797 L 235.13,132.809 C 233.888,132.811 232.881,133.82 232.884,135.062 C 232.886,136.304 233.895,137.311 235.137,137.308 L 242.011,137.296 C 243.253,137.294 244.26,136.285 244.257,135.043 C 244.255,133.801 243.246,132.794 242.004,132.797 Z" stroke-width="0.5" stroke="none" fill="#000000" fill-rule="evenodd" marker-start="none" marker-end="none" stroke-miterlimit="79.8403193612775"/><path d="M 190.81,124.539 L 177.941,125.342 C 176.702,125.419 175.759,126.488 175.836,127.728 C 175.913,128.967 176.982,129.91 178.222,129.833 L 191.091,129.03 C 192.33,128.953 193.273,127.884 193.196,126.644 C 193.119,125.405 192.05,124.462 190.81,124.539 Z" stroke-width="0.5" stroke="none" fill="#000000" fill-rule="evenodd" marker-start="none" marker-end="none" stroke-miterlimit="79.8403193612775"/><path d="M 211.28,122.631 L 202.434,123.433 C 201.197,123.545 200.285,124.64 200.397,125.877 C 200.509,127.114 201.604,128.026 202.841,127.914 L 211.687,127.112 C 212.924,127 213.836,125.905 213.724,124.668 C 213.612,123.431 212.517,122.519 211.28,122.631 Z" stroke-width="0.5" stroke="none" fill="#000000" fill-rule="evenodd" marker-start="none" marker-end="none" stroke-miterlimit="79.8403193612775"/><path d="M 230.987,121.235 L 222.326,122.443 C 221.096,122.615 220.237,123.752 220.408,124.982 C 220.58,126.212 221.717,127.071 222.947,126.9 L 231.608,125.692 C 232.838,125.52 233.697,124.383 233.526,123.153 C 233.354,121.923 232.217,121.064 230.987,121.235 Z" stroke-width="0.5" stroke="none" fill="#000000" fill-rule="evenodd" marker-start="none" marker-end="none" stroke-miterlimit="79.8403193612775"/><path d="M 196.113,113.281 L 185.659,114.085 C 184.421,114.18 183.493,115.263 183.588,116.501 C 183.683,117.739 184.766,118.667 186.004,118.572 L 196.458,117.768 C 197.696,117.673 198.624,116.59 198.529,115.352 C 198.434,114.114 197.351,113.186 196.113,113.281 Z" stroke-width="0.5" stroke="none" fill="#000000" fill-rule="evenodd" marker-start="none" marker-end="none" stroke-miterlimit="79.8403193612775"/><path d="M 209.877,112.504 L 204.78,112.785 C 203.54,112.853 202.589,113.915 202.657,115.155 C 202.725,116.395 203.787,117.346 205.027,117.278 L 210.124,116.997 C 211.364,116.929 212.315,115.867 212.247,114.627 C 212.179,113.387 211.117,112.436 209.877,112.504 Z" stroke-width="0.5" stroke="none" fill="#000000" fill-rule="evenodd" marker-start="none" marker-end="none" stroke-miterlimit="79.8403193612775"/><path d="M 219.425,114.481 C 219.425,115.722 220.433,116.731 221.675,116.731 L 227.707,116.731 C 228.948,116.731 229.957,115.722 229.957,114.481 C 229.957,113.239 228.948,112.231 227.707,112.231 L 221.675,112.231 C 220.433,112.231 219.425,113.239 219.425,114.481 Z" stroke-width="0.5" stroke="none" fill="#000000" fill-rule="evenodd" marker-start="none" marker-end="none" stroke-miterlimit="79.8403193612775"/><path d="M 211.954,144.484 L 206.857,144.765 C 205.617,144.833 204.666,145.895 204.734,147.135 C 204.802,148.375 205.864,149.326 207.104,149.258 L 212.201,148.977 C 213.441,148.909 214.392,147.847 214.324,146.607 C 214.256,145.367 213.194,144.416 211.954,144.484 Z" stroke-width="0.5" stroke="none" fill="#000000" fill-rule="evenodd" marker-start="none" marker-end="none" stroke-miterlimit="79.8403193612775"/><path d="M 234.109,143.285 L 221.24,144.088 C 220.001,144.165 219.058,145.234 219.135,146.474 C 219.212,147.713 220.281,148.656 221.521,148.579 L 234.39,147.776 C 235.629,147.699 236.572,146.63 236.495,145.39 C 236.418,144.151 235.349,143.208 234.109,143.285 Z" stroke-width="0.5" stroke="none" fill="#000000" fill-rule="evenodd" marker-start="none" marker-end="none" stroke-miterlimit="79.8403193612775"/><path d="M 196.597,46.047 C 195.209,35.134 195.875,24.221 196.804,13.31 L 218.217,12.486 L 217.599,17.222 L 201.745,18.251 C 200.217,26.264 199.721,35.306 200.923,46.047 L 196.597,46.047 Z" stroke-linejoin="miter" stroke="none" fill="#000000" marker-start="none" marker-end="none"/><path d="M 188.948,48.533 L 188.068,68.608 C 194.649,67.393 201.448,66.611 208.394,66.19 L 207.067,47.091 C 200.777,45.331 194.69,45.382 188.948,48.533 Z" fill-rule="evenodd" stroke-width="0.5" stroke="none" fill="#000000" marker-start="none" marker-end="none" stroke-miterlimit="79.8403193612775"/><path d="M 216.513,42.256 L 215.005,42.741 L 214.243,65.9 C 219.55,65.733 224.928,65.76 230.347,65.95 C 233.171,66.124 236.136,66.713 239.187,67.702 L 238.998,41.689 L 237.155,41.361 C 231.065,40.279 223.989,39.854 216.513,42.256 Z" fill-rule="evenodd" stroke-width="0.5" stroke="none" fill="#000000" marker-start="none" marker-end="none" stroke-miterlimit="79.8403193612775"/></g></g></g><text x="0" y="367.5" fill="#000000" font-size="5px" font-weight="bold" font-family="'Helvetica Neue', Helvetica, Arial-Unicode, Arial, Sans-serif">Created by Dmitry Podluzny</text><text x="0" y="372.5" fill="#000000" font-size="5px" font-weight="bold" font-family="'Helvetica Neue', Helvetica, Arial-Unicode, Arial, Sans-serif">from the Noun Project</text></svg>