<svg xmlns:xlink="http://www.w3.org/1999/xlink" xmlns="http://www.w3.org/2000/svg" stroke-width="0.501" stroke-linejoin="bevel" fill-rule="evenodd" version="1.1" overflow="visible" viewBox="0 0 367.5 440.625" x="0px" y="0px"><g fill="none" stroke="black" font-family="Times New Roman" font-size="16" transform="scale(1 -1)"><g transform="translate(0 -352.5)"><g><path d="M 304.608,246.363 C 304.117,246.519 303.626,246.771 303.189,247.144 L 303.077,247.256 L 302.785,247.471 C 302.521,247.708 302.351,247.942 302.271,248.055 C 301.706,248.846 301.208,250.144 300.812,251.296 C 300.365,252.598 299.892,254.183 299.42,255.854 C 298.46,259.25 297.505,262.976 296.666,265.87 L 296.557,266.245 L 296.581,266.635 C 296.801,270.222 297.039,273.75 297.281,277.216 L 297.415,279.127 L 299.322,279.3 C 300.62,279.418 301.865,279.545 303.062,279.699 L 304.51,279.885 L 317.883,257.974 L 317.937,257.857 C 319.227,255.066 318.278,252.372 316.525,250.754 C 315.49,249.799 314.071,249.121 312.563,249.004 L 311.932,249.004 L 312.094,249.213 C 310.454,246.853 307.013,245.591 304.608,246.363 Z M 307.447,251 C 308.197,251.396 308.486,251.865 308.527,252.037 L 309.142,254.668 L 311.618,253.586 C 312.064,253.392 312.842,253.478 313.473,254.061 C 313.931,254.484 314.16,255.015 313.963,255.676 L 313.88,255.892 L 302.17,275.079 L 301.641,275.023 L 301.412,271.672 L 301.096,266.739 L 301.309,265.993 C 302.076,263.266 302.94,259.944 303.751,257.078 C 304.865,253.135 305.466,251.598 305.754,250.993 L 306.055,250.64 L 305.983,250.648 C 306.094,250.612 306.685,250.598 307.447,251 Z" stroke-width="0.5" stroke="none" fill="#000000" fill-rule="evenodd" marker-start="none" marker-end="none" stroke-miterlimit="79.8403193612775"/><path d="M 216.659,41.02 L 215.151,41.505 L 214.242,69.156 L 216.618,69.104 C 221.112,69.006 225.663,69.046 230.231,69.209 C 232.18,69.326 234.283,69.697 236.489,70.315 L 239.368,71.122 L 239.144,40.453 L 237.301,40.125 C 231.211,39.043 224.135,38.618 216.659,41.02 Z M 234.671,44.262 L 234.826,65.301 L 234.037,65.142 C 232.828,64.929 231.63,64.785 230.446,64.714 C 228.095,64.63 225.76,64.578 223.439,64.559 L 218.893,64.589 L 219.541,44.886 L 218.036,45.305 C 223.732,43.474 229.238,43.497 234.348,44.211 L 234.671,44.262 Z" stroke-width="0.5" stroke="none" fill="#000000" fill-rule="evenodd" marker-start="none" marker-end="none" stroke-miterlimit="79.8403193612775"/><path d="M 187.847,45.309 L 186.737,45.918 L 185.577,72.391 L 188.366,71.866 C 194.903,70.634 201.696,69.844 208.667,69.423 L 210.934,69.287 L 209.183,44.1 L 207.655,43.673 C 200.974,41.803 194.245,41.798 187.847,45.309 Z M 204.917,47.634 L 206.131,65.099 L 203.076,65.326 C 199.551,65.638 196.067,66.051 192.637,66.574 L 190.318,66.968 L 191.119,48.695 L 190.969,48.761 C 195.138,46.763 199.549,46.499 204.25,47.471 L 204.917,47.634 Z" stroke-width="0.5" stroke="none" fill="#000000" fill-rule="evenodd" marker-start="none" marker-end="none" stroke-miterlimit="79.8403193612775"/><path d="M 297.089,274.58 L 297.281,277.223 L 297.611,281.786 L 297.323,283.937 C 297.202,284.72 297.066,285.507 296.915,286.293 L 296.56,288.139 L 298.313,288.817 C 307.097,292.215 315.431,290.894 322.017,287.607 L 324.539,286.347 L 322.752,284.167 C 316.969,277.113 308.78,275.638 299.728,274.819 L 297.089,274.58 Z M 317.102,284.818 L 316.693,284.968 C 312.484,286.406 307.714,286.829 302.696,285.514 L 301.668,285.213 L 301.77,284.621 C 301.899,283.781 302.012,282.944 302.108,282.111 L 302.132,281.901 L 302.116,281.69 L 301.963,279.571 L 302.599,279.642 C 308.381,280.348 312.946,281.543 316.541,284.345 L 317.102,284.818 Z" stroke-width="0.5" stroke="none" fill="#000000" fill-rule="evenodd" marker-start="none" marker-end="none" stroke-miterlimit="79.8403193612775"/><path d="M 262.659,297.103 L 261.489,297.381 C 258.376,298.121 255.681,299.291 253.514,300.88 C 250.324,303.25 249.878,306.574 251.99,309.312 C 253.304,311.015 255.487,312.352 258.025,313.259 L 258.417,313.373 L 258.243,314.16 C 257.705,317.166 258.004,320.014 260.343,321.705 C 262.473,323.244 265.584,323.133 269.176,322.136 L 269.76,321.955 L 269.775,322.307 C 270.173,325.942 271.974,328.818 274.521,330.296 C 278.127,332.387 282.569,331.256 284.809,326.688 C 287.792,320.175 288.733,313.6 290.056,307.609 L 291.176,302.535 L 286.709,305.189 L 286.331,305.399 L 284.977,305.515 C 276.183,306.047 269.186,303.163 263.54,297.922 L 262.659,297.103 Z M 261.473,302.057 L 263.176,303.493 C 268.75,307.739 275.405,310.141 283.236,310.076 L 284.952,310.017 L 284.674,311.345 C 283.724,315.964 282.764,320.345 280.742,324.761 C 279.635,327.018 278.039,327.134 276.779,326.403 C 275.315,325.554 273.717,323.126 274.32,319.109 L 274.896,315.269 L 271.278,316.679 C 268.708,317.68 266.745,318.191 265.303,318.336 C 263.83,318.484 263.204,318.221 262.98,318.058 C 262.655,317.824 261.989,316.604 263.301,312.515 L 264.052,310.175 L 261.655,309.633 C 258.492,308.918 256.385,307.641 255.553,306.564 C 255.178,306.077 255.182,305.801 255.202,305.685 C 255.225,305.546 255.361,305.114 256.187,304.501 C 257.366,303.634 258.849,302.881 260.638,302.292 L 261.473,302.057 Z" stroke-width="0.5" stroke="none" fill="#000000" fill-rule="evenodd" marker-start="none" marker-end="none" stroke-miterlimit="79.8403193612775"/><path d="M 196.596,44.811 C 195.208,33.898 195.874,22.985 196.803,12.074 L 218.216,11.25 L 217.598,15.986 L 201.744,17.015 C 200.216,25.028 199.72,34.07 200.922,44.811 L 196.596,44.811 Z" stroke-linejoin="miter" stroke="none" fill="#000000" marker-start="none" marker-end="none"/><path d="M 226.452,41.516 C 225.286,31.51 226.264,21.933 227.893,12.486 L 247.248,12.896 L 246.835,18.25 L 232.628,18.25 C 230.329,25.937 230.593,33.624 230.776,41.31 L 226.452,41.516 Z" stroke-linejoin="miter" stroke="none" fill="#000000" marker-start="none" marker-end="none"/><path d="M 156.736,77.68 C 133.663,89.214 110.608,129.431 108.461,159.492 C 107.896,174.873 109.737,188.245 113.093,200.354 C 98.618,200.7 85.284,199.62 70.533,194.011 C 71.198,190.758 70.537,187.247 68.414,184.366 C 64.437,178.968 56.826,177.815 51.428,181.792 C 46.03,185.769 44.877,193.38 48.854,198.778 C 52.832,204.176 60.443,205.329 65.841,201.352 C 67.056,200.456 68.057,199.376 68.832,198.178 C 84.786,204.265 99.122,205.265 114.416,204.82 C 114.608,205.432 114.805,206.04 115.005,206.645 L 115.076,206.86 C 106.264,219.419 93.425,226.628 74.489,226.137 C 74.152,224.444 73.447,222.797 72.357,221.317 C 68.38,215.919 60.769,214.766 55.371,218.743 C 49.973,222.72 48.82,230.332 52.797,235.729 C 56.775,241.127 64.386,242.28 69.784,238.303 C 72.395,236.378 74.013,233.603 74.537,230.639 C 94.782,231.118 108.987,223.296 118.672,209.571 C 119.324,209.784 120.051,209.962 120.841,210.111 C 119.884,223.497 114.761,234.664 106.831,245.177 C 102.649,241.982 96.698,241.775 92.25,245.053 C 86.852,249.03 85.699,256.641 89.676,262.039 C 93.654,267.437 101.265,268.59 106.663,264.613 C 111.743,260.869 113.062,253.905 109.883,248.599 C 118.462,237.423 124.222,225.305 125.315,210.629 C 128.094,210.804 131.253,210.802 134.562,210.73 C 143.606,210.532 155.341,209.625 167.932,208.481 C 190.049,206.472 214.8,203.734 232.819,202.719 L 237.691,202.503 L 237.46,208.341 C 236.388,251.393 244.537,314.535 287.252,309.836 L 287.662,309.791 L 288.029,309.603 C 297.051,304.993 300.915,292.491 302.108,282.121 L 302.132,281.911 L 302.117,281.701 C 300.011,252.643 297.968,219.487 302.96,182.553 L 302.982,182.389 L 302.98,182.224 C 302.116,110.764 259.112,66.485 230.493,64.714 C 203.653,63.777 177.805,66.815 156.736,77.68 Z M 230.276,69.209 C 253.856,70.668 292.42,106.954 297.85,169.435 L 298.475,182.171 L 296.924,195.805 C 294.808,218.59 295.133,239.833 296.164,259.385 L 297.61,281.753 L 296.265,289.225 C 294.715,295.384 292.128,300.847 288.374,303.997 L 286.327,305.364 L 279.717,305.392 C 246.337,301.717 239.981,242.328 242.283,200.27 L 242.417,197.826 L 239.97,197.898 C 221.61,198.445 192.6,201.721 167.524,204 C 132.816,207.153 122.727,206.362 119.904,205.313 L 119.186,204.913 L 116.349,194.979 C 113.804,184.406 112.474,172.821 112.956,159.735 C 115.015,130.902 137.448,92.353 158.773,81.693 C 178.884,71.322 203.842,68.286 230.276,69.209 Z M 150.504,169.189 L 150.67,170.94 L 152.409,171.202 C 183.066,175.824 213.68,171.806 243.959,167.989 C 247.583,167.373 249.632,165.886 250.845,163.597 L 250.971,163.359 L 251.037,163.097 C 254.403,149.841 254.304,136.905 249.354,123.138 C 245.758,114.185 238.917,106.769 227.711,101.402 L 227.467,101.285 L 227.202,101.23 C 185.756,92.526 145.519,116.412 150.504,169.189 Z M 218.989,104.448 L 226.013,105.59 L 229.435,107.391 C 237.53,112.075 242.438,117.993 245.147,124.739 C 249.161,135.903 249.746,146.496 247.708,157.33 L 246.745,161.677 L 246.469,162.097 C 245.975,162.691 245.127,163.225 243.3,163.536 C 216.777,166.879 190.51,170.289 164.306,168.066 L 154.831,166.957 C 151.462,121.96 183.251,100.346 218.989,104.448 Z M 219.724,111.445 C 219.724,112.686 220.732,113.695 221.974,113.695 L 228.006,113.695 C 229.247,113.695 230.256,112.686 230.256,111.445 C 230.256,110.203 229.247,109.195 228.006,109.195 L 221.974,109.195 C 220.732,109.195 219.724,110.203 219.724,111.445 Z M 212.753,110.041 L 204.308,111.648 C 203.088,111.88 202.286,113.059 202.518,114.279 C 202.75,115.499 203.929,116.301 205.149,116.069 L 213.594,114.462 C 214.814,114.23 215.616,113.051 215.384,111.831 C 215.152,110.611 213.973,109.809 212.753,110.041 Z M 196.112,112.045 L 185.658,112.849 C 184.42,112.944 183.492,114.027 183.587,115.265 C 183.682,116.503 184.765,117.431 186.003,117.336 L 196.457,116.532 C 197.695,116.437 198.623,115.354 198.528,114.116 C 198.433,112.878 197.35,111.95 196.112,112.045 Z M 237.365,119.689 L 225.704,120.897 C 224.468,121.025 223.57,122.132 223.697,123.367 C 223.825,124.603 224.932,125.501 226.167,125.374 L 237.828,124.166 C 239.064,124.038 239.962,122.931 239.835,121.696 C 239.707,120.46 238.6,119.562 237.365,119.689 Z M 216.079,120.495 L 207.233,121.297 C 205.996,121.409 205.084,122.504 205.196,123.741 C 205.308,124.978 206.403,125.89 207.64,125.778 L 216.486,124.976 C 217.723,124.864 218.635,123.769 218.523,122.532 C 218.411,121.295 217.316,120.383 216.079,120.495 Z M 190.809,123.303 L 177.94,124.106 C 176.701,124.183 175.758,125.252 175.835,126.492 C 175.912,127.731 176.981,128.674 178.221,128.597 L 191.09,127.794 C 192.329,127.717 193.272,126.648 193.195,125.408 C 193.118,124.169 192.049,123.226 190.809,123.303 Z M 226.494,131.179 L 219.655,131.986 C 218.421,132.132 217.538,133.251 217.684,134.484 C 217.83,135.718 218.949,136.601 220.182,136.455 L 227.021,135.648 C 228.255,135.502 229.138,134.383 228.992,133.15 C 228.846,131.916 227.727,131.033 226.494,131.179 Z M 242.003,131.561 L 235.129,131.573 C 233.887,131.575 232.88,132.584 232.883,133.826 C 232.885,135.068 233.894,136.075 235.136,136.072 L 242.01,136.06 C 243.252,136.058 244.259,135.049 244.256,133.807 C 244.254,132.565 243.245,131.558 242.003,131.561 Z M 195.94,135.603 C 195.94,136.844 196.948,137.853 198.19,137.853 L 207.036,137.853 C 208.277,137.853 209.286,136.844 209.286,135.603 C 209.286,134.361 208.277,133.353 207.036,133.353 L 198.19,133.353 C 196.948,133.353 195.94,134.361 195.94,135.603 Z M 184.413,135.047 L 167.122,136.255 C 165.883,136.342 164.947,137.417 165.034,138.656 C 165.121,139.895 166.196,140.831 167.435,140.744 L 184.726,139.536 C 185.965,139.449 186.901,138.374 186.814,137.135 C 186.727,135.896 185.652,134.96 184.413,135.047 Z M 226.682,141.797 L 211,142.199 C 209.758,142.231 208.776,143.265 208.808,144.506 C 208.84,145.748 209.874,146.73 211.115,146.698 L 226.797,146.296 C 228.039,146.264 229.021,145.23 228.989,143.989 C 228.957,142.747 227.923,141.765 226.682,141.797 Z M 197.325,145.416 L 181.643,145.819 C 180.401,145.851 179.419,146.885 179.451,148.126 C 179.483,149.368 180.517,150.35 181.758,150.318 L 197.44,149.915 C 198.682,149.883 199.664,148.849 199.632,147.608 C 199.6,146.366 198.566,145.384 197.325,145.416 Z M 240.522,151.868 L 225.238,153.879 C 224.007,154.041 223.139,155.172 223.301,156.403 C 223.463,157.634 224.594,158.502 225.825,158.34 L 241.109,156.329 C 242.34,156.167 243.208,155.036 243.046,153.805 C 242.884,152.574 241.753,151.706 240.522,151.868 Z M 209.677,153.866 L 193.994,155.074 C 192.755,155.17 191.828,156.252 191.923,157.49 C 192.019,158.729 193.101,159.656 194.339,159.561 L 210.022,158.353 C 211.261,158.257 212.188,157.175 212.093,155.937 C 211.997,154.698 210.915,153.771 209.677,153.866 Z M 181.134,155.073 L 164.646,156.278 C 163.408,156.369 162.476,157.448 162.566,158.687 C 162.657,159.925 163.736,160.857 164.975,160.767 L 181.463,159.562 C 182.701,159.471 183.633,158.392 183.543,157.153 C 183.452,155.915 182.373,154.983 181.134,155.073 Z M 154.831,166.957 L 154.859,166.961 L 154.985,168.766 C 154.927,168.159 154.876,167.556 154.831,166.957 Z M 270.032,264.119 C 261.748,264.39 255.45,269.169 256.212,277.828 L 256.453,279.555 L 256.606,280.886 C 257.769,287.78 264.097,295.442 271.173,296.059 L 272.63,296.082 L 272.661,296.08 L 272.698,296.078 L 274.304,295.942 C 281.876,294.755 286.073,286.351 285.492,279.061 L 285.313,277.674 C 285.312,277.671 285.312,277.668 285.312,277.665 L 285.305,277.61 L 285.311,277.664 C 284.821,269.709 277.968,263.643 270.032,264.119 Z M 282.32,277.873 L 282.325,277.961 L 282.341,278.048 C 283.569,284.9 279.295,292.989 272.588,293.084 L 272.554,293.084 L 272.52,293.086 C 266.451,293.451 259.823,285.787 259.433,279.245 L 259.427,279.15 L 259.41,279.057 C 257.971,271.412 262.705,267.361 270.171,267.116 C 276.506,266.736 281.944,271.558 282.32,277.873 Z M 267.078,275.714 C 264.806,277.55 264.69,280.642 266.821,282.601 C 268.952,284.561 272.527,284.66 274.799,282.824 C 277.071,280.988 277.187,277.896 275.056,275.937 C 272.925,273.978 269.35,273.878 267.078,275.714 Z M 285.312,277.67 L 285.313,277.674 C 285.314,277.681 285.314,277.687 285.315,277.694 L 285.312,277.67 Z" fill-rule="evenodd" stroke-width="0.5" stroke="none" fill="#000000" marker-start="none" marker-end="none" stroke-miterlimit="79.8403193612775"/></g></g></g><!-- <text x="0" y="367.5" fill="#000000" font-size="5px" font-weight="bold" font-family="'Helvetica Neue', Helvetica, Arial-Unicode, Arial, Sans-serif">Created by Dmitry Podluzny</text><text x="0" y="372.5" fill="#000000" font-size="5px" font-weight="bold" font-family="'Helvetica Neue', Helvetica, Arial-Unicode, Arial, Sans-serif">from the Noun Project</text> --></svg>